<svg class="icon"  xmlns="http://www.w3.org/2000/svg" width="20" height="20" viewBox="0 0 20 20" fill="none">
<path d="M16.07 8H15V5C15 5 15 0 10 0C5 0 5 5 5 5V8H3.93C3.41813 8 2.92723 8.20334 2.56528 8.56528C2.20334 8.92723 2 9.41813 2 9.93V18.08C2.00264 18.5901 2.20715 19.0785 2.56881 19.4383C2.93047 19.798 3.41986 20 3.93 20H16.07C16.5819 20 17.0728 19.7967 17.4347 19.4347C17.7967 19.0728 18 18.5819 18 18.07V9.93C18 9.41813 17.7967 8.92723 17.4347 8.56528C17.0728 8.20334 16.5819 8 16.07 8V8ZM7 5.5C7 4 7 2 10 2C13 2 13 4 13 5.5V8H7V5.5ZM10 16C9.60444 16 9.21776 15.8827 8.88886 15.6629C8.55996 15.4432 8.30362 15.1308 8.15224 14.7654C8.00087 14.3999 7.96126 13.9978 8.03843 13.6098C8.1156 13.2219 8.30608 12.8655 8.58579 12.5858C8.86549 12.3061 9.22186 12.1156 9.60982 12.0384C9.99778 11.9613 10.3999 12.0009 10.7654 12.1522C11.1308 12.3036 11.4432 12.56 11.6629 12.8889C11.8827 13.2178 12 13.6044 12 14C12 14.5304 11.7893 15.0391 11.4142 15.4142C11.0391 15.7893 10.5304 16 10 16Z" fill="#CCCCCC"/>
</svg>