<svg class="icon" xmlns="http://www.w3.org/2000/svg" width="24" height="25" viewBox="0 0 24 25" fill="none">
<path fill="currentColor" d="M5.82253 6.08495C5.83041 6.08544 5.82647 6.08544 5.82253 6.08495V6.08495ZM23.1305 8.31851C22.608 7.06259 21.5505 5.70817 20.7202 5.27821C21.3959 6.60258 21.7874 7.93188 21.9367 8.92283C21.9369 8.92962 21.9378 8.93637 21.9391 8.94302C20.5808 5.55697 18.2772 4.19172 16.3959 1.21889C15.6575 0.0521163 15.8578 -0.0237311 15.7517 0.00434231L15.7457 0.00778994C13.4452 1.28602 12.0354 3.86764 11.6785 6.05293C10.8602 6.09594 10.0581 6.29903 9.31792 6.6507C9.25134 6.68096 9.19708 6.73301 9.16409 6.79828C9.1311 6.86354 9.12136 6.9381 9.13647 7.00965C9.14602 7.05097 9.16413 7.08984 9.18963 7.12373C9.21513 7.15762 9.24746 7.18579 9.28452 7.20641C9.32158 7.22703 9.36255 7.23965 9.40479 7.24347C9.44702 7.24729 9.48959 7.24221 9.52975 7.22857L9.55536 7.21823C10.3187 6.85854 11.1509 6.66834 11.9948 6.6607C15.0892 6.63268 16.7799 8.82895 17.2953 9.72858C16.655 9.27793 15.505 8.8327 14.3983 9.02527C18.7196 11.1854 17.5602 18.6065 11.5717 18.3437C8.64302 18.2151 6.79086 15.8328 6.62045 13.8716C6.62045 13.8716 7.17453 11.8055 10.5911 11.8055C10.9605 11.8055 12.016 10.7752 12.0357 10.4757C12.0312 10.3772 9.94075 9.54606 9.12539 8.74306C8.68966 8.31393 8.48256 8.10737 8.29944 7.95208C8.20035 7.86798 8.0966 7.78954 7.98866 7.71715C7.71467 6.75888 7.70292 5.74463 7.95463 4.78027C6.72038 5.34223 5.76047 6.23073 5.06307 7.01482H5.05716C4.58089 6.41149 4.61389 4.42172 4.64197 4.00653C4.63606 3.98043 4.28598 4.18718 4.24057 4.2188C3.81868 4.51689 3.42559 4.85376 3.06641 5.22501C2.26405 6.04259 0.892834 7.69518 0.332941 10.2108C0.109536 11.2147 0 12.3986 0 12.7866C0 19.4208 5.37877 24.7986 12.0135 24.7986C17.9552 24.7986 22.9975 20.5025 23.855 14.8192C24.425 11.0418 23.1305 8.36392 23.1305 8.31851V8.31851Z" fill="#CCCCCC"/>
</svg>