<svg class="icon" xmlns="http://www.w3.org/2000/svg" width="25" height="23" viewBox="0 0 25 23" fill="none">
<path  fill="currentColor" d="M24.2035 11.1706L13.299 0.274048C13.2205 0.195379 13.1272 0.132966 13.0246 0.0903821C12.9219 0.0477982 12.8118 0.0258789 12.7007 0.0258789C12.5895 0.0258789 12.4795 0.0477982 12.3768 0.0903821C12.2742 0.132966 12.1809 0.195379 12.1024 0.274048L1.1979 11.1706C0.880216 11.4883 0.700195 11.9198 0.700195 12.3698C0.700195 13.3044 1.45999 14.0642 2.39451 14.0642H3.54346V21.8395C3.54346 22.308 3.92204 22.6866 4.39062 22.6866H11.0064V16.7565H13.9714V22.6866H21.0108C21.4793 22.6866 21.8579 22.308 21.8579 21.8395V14.0642H23.0069C23.4569 14.0642 23.8884 13.8868 24.2061 13.5665C24.8653 12.9046 24.8653 11.8324 24.2035 11.1706V11.1706Z" fill="#CCCCCC"/>
</svg>