<svg class="icon" xmlns="http://www.w3.org/2000/svg" width="23" height="23" viewBox="0 0 23 23" fill="none">
<path fill="currentColor" d="M11.5112 8.7731C10.8396 8.7731 10.2107 9.03364 9.73457 9.50981C9.26064 9.98599 8.99785 10.6149 8.99785 11.2865C8.99785 11.9581 9.26064 12.587 9.73457 13.0631C10.2107 13.5371 10.8396 13.7999 11.5112 13.7999C12.1828 13.7999 12.8117 13.5371 13.2879 13.0631C13.7618 12.587 14.0246 11.9581 14.0246 11.2865C14.0246 10.6149 13.7618 9.98599 13.2879 9.50981C13.0553 9.27545 12.7785 9.08963 12.4735 8.96316C12.1685 8.83669 11.8414 8.77209 11.5112 8.7731V8.7731ZM20.7719 14.0626L19.3029 12.8071C19.3726 12.3803 19.4085 11.9446 19.4085 11.5111C19.4085 11.0776 19.3726 10.6396 19.3029 10.2151L20.7719 8.95952C20.8828 8.86453 20.9623 8.738 20.9996 8.59677C21.0369 8.45555 21.0303 8.3063 20.9808 8.1689L20.9605 8.1105C20.5563 6.98002 19.9505 5.93214 19.1726 5.01763L19.1322 4.97046C19.0378 4.85939 18.9119 4.77956 18.7711 4.74146C18.6304 4.70337 18.4814 4.70882 18.3438 4.75708L16.52 5.4062C15.8462 4.85366 15.096 4.41792 14.2829 4.1147L13.9303 2.20776C13.9037 2.06411 13.834 1.93195 13.7305 1.82884C13.627 1.72574 13.4945 1.65656 13.3508 1.63052L13.2901 1.61929C12.1222 1.40815 10.8913 1.40815 9.72333 1.61929L9.66269 1.63052C9.51893 1.65656 9.3865 1.72574 9.283 1.82884C9.17949 1.93195 9.1098 2.06411 9.0832 2.20776L8.72832 4.12368C7.92293 4.42932 7.17266 4.86401 6.50693 5.41069L4.66962 4.75708C4.53209 4.70843 4.383 4.70279 4.24218 4.74091C4.10136 4.77902 3.97547 4.85908 3.88125 4.97046L3.84082 5.01763C3.06432 5.93311 2.45873 6.98073 2.05293 8.1105L2.03271 8.1689C1.93164 8.44966 2.01474 8.76411 2.2416 8.95952L3.72851 10.2286C3.65888 10.6508 3.62519 11.0821 3.62519 11.5088C3.62519 11.9401 3.65888 12.3713 3.72851 12.7891L2.24609 14.0582C2.13512 14.1531 2.0557 14.2797 2.01839 14.4209C1.98108 14.5621 1.98764 14.7114 2.0372 14.8488L2.05742 14.9072C2.46396 16.037 3.06367 17.0814 3.84531 18L3.88574 18.0472C3.9802 18.1583 4.10609 18.2381 4.24682 18.2762C4.38756 18.3143 4.53654 18.3089 4.67412 18.2606L6.51142 17.607C7.18076 18.1573 7.92646 18.593 8.73281 18.894L9.08769 20.8099C9.1143 20.9536 9.18398 21.0857 9.28749 21.1888C9.391 21.2919 9.52343 21.3611 9.66718 21.3872L9.72783 21.3984C10.9073 21.6107 12.1152 21.6107 13.2946 21.3984L13.3553 21.3872C13.499 21.3611 13.6315 21.2919 13.735 21.1888C13.8385 21.0857 13.9082 20.9536 13.9348 20.8099L14.2874 18.903C15.1005 18.5975 15.8507 18.164 16.5245 17.6115L18.3483 18.2606C18.4859 18.3092 18.635 18.3149 18.7758 18.2768C18.9166 18.2387 19.0425 18.1586 19.1367 18.0472L19.1771 18C19.9588 17.0769 20.5585 16.037 20.965 14.9072L20.9852 14.8488C21.0818 14.5703 20.9987 14.2581 20.7719 14.0626ZM11.5112 15.2351C9.33027 15.2351 7.56259 13.4674 7.56259 11.2865C7.56259 9.10552 9.33027 7.33784 11.5112 7.33784C13.6922 7.33784 15.4599 9.10552 15.4599 11.2865C15.4599 13.4674 13.6922 15.2351 11.5112 15.2351Z" fill="#CCCCCC"/>
</svg>
