<svg class="icon" xmlns="http://www.w3.org/2000/svg" width="34" height="34" viewBox="0 0 1024 1024" fill="none">
<path fill="currentColor" d="M946.5 505L560.1 118.8L534.2 92.8996C528.299 87.0372 520.318 83.7471 512 83.7471C503.682 83.7471 495.701 87.0372 489.8 92.8996L77.4999 505C71.4531 511.023 66.6741 518.197 63.4452 526.097C60.2162 533.998 58.6027 542.465 58.6999 551C59.0999 586.2 88.3999 614.3 123.6 614.3H166.1V940H857.9V614.3H901.3C918.4 614.3 934.5 607.6 946.6 595.5C952.558 589.561 957.279 582.499 960.488 574.723C963.698 566.947 965.334 558.612 965.3 550.2C965.3 533.2 958.6 517.1 946.5 505V505ZM568 868H456V664H568V868ZM785.9 542.3V868H632V640C632 617.9 614.1 600 592 600H432C409.9 600 392 617.9 392 640V868H238.1V542.3H142.1L512.1 172.6L535.2 195.7L882 542.3H785.9Z"/>
</svg>