<svg xmlns="http://www.w3.org/2000/svg" width="141" height="141" viewBox="0 0 141 141" fill="none">
<g clip-path="url(#clip0_1216_4914)">
<path d="M73.0851 128.78C103.585 128.78 128.31 104.055 128.31 73.555C128.31 43.0551 103.585 18.33 73.0851 18.33C42.5852 18.33 17.8601 43.0551 17.8601 73.555C17.8601 104.055 42.5852 128.78 73.0851 128.78Z" fill="url(#paint0_linear_1216_4914)"/>
<path d="M39.7928 94.94L62.9983 31.2189L111.934 82.9607L55.0978 109.051C45.9933 113.231 36.3647 104.353 39.7928 94.94Z" fill="#E1DCEB"/>
<path d="M93.7975 51.3423C100.554 58.5412 106 65.6781 109.344 71.3938C111.018 74.2533 112.158 76.7457 112.677 78.7056C112.937 79.6857 113.038 80.5205 112.98 81.1953C112.922 81.8681 112.708 82.3659 112.351 82.7008C111.994 83.0356 111.484 83.2181 110.809 83.2333C110.131 83.2486 109.305 83.0949 108.343 82.7736C106.42 82.1312 104.005 80.8353 101.257 78.9844C95.7645 75.2849 88.9867 69.3978 82.2302 62.199C75.4737 55.0002 70.0276 47.8633 66.6833 42.1476C65.0101 39.2881 63.8698 36.7957 63.3504 34.8357C63.0907 33.8556 62.9896 33.0208 63.0478 32.3461C63.1057 31.6732 63.3201 31.1754 63.6769 30.8406C64.0337 30.5057 64.544 30.3233 65.2192 30.308C65.8963 30.2927 66.723 30.4465 67.6847 30.7677C69.6078 31.4102 72.023 32.7061 74.7709 34.5569C80.2633 38.2565 87.041 44.1435 93.7975 51.3423Z" fill="#011625" stroke="#011625" stroke-width="0.47"/>
<mask id="mask0_1216_4914" style="mask-type:alpha" maskUnits="userSpaceOnUse" x="39" y="31" width="73" height="80">
<path d="M39.7928 94.94L62.9983 31.2189L111.934 82.9607L55.0978 109.051C45.9933 113.231 36.3647 104.353 39.7928 94.94Z" fill="#E1DCEB"/>
</mask>
<g mask="url(#mask0_1216_4914)">
<path fill-rule="evenodd" clip-rule="evenodd" d="M61.9101 73.5899C52.1058 60.7502 47.1452 45.4429 45.5452 35.166L53.4401 33.9369C54.8803 43.1874 59.426 57.1713 68.2605 68.7408C77.0118 80.2015 89.8152 89.1387 108.075 89.1387V97.1287C86.7651 97.1287 71.7976 86.5384 61.9101 73.5899Z" fill="#011625"/>
<path fill-rule="evenodd" clip-rule="evenodd" d="M62.9626 71.1343C53.1583 58.2946 48.1976 42.9873 46.5977 32.7105L54.4925 31.4813C55.9327 40.7318 60.4785 54.7157 69.313 66.2852C78.0643 77.7459 90.8677 86.6831 109.127 86.6831V94.6731C87.8176 94.6731 72.8501 84.0829 62.9626 71.1343Z" fill="white"/>
<path fill-rule="evenodd" clip-rule="evenodd" d="M50.3342 89.7263C40.5299 76.8866 35.5692 61.5793 33.9692 51.3024L41.8641 50.0733C43.3043 59.3238 47.8501 73.3077 56.6845 84.8772C65.4358 96.3379 78.2393 105.275 96.4989 105.275V113.265C75.1892 113.265 60.2216 102.675 50.3342 89.7263Z" fill="white"/>
</g>
<circle cx="84.6" cy="100.11" r="14.1" fill="#FF4040"/>
<path fill-rule="evenodd" clip-rule="evenodd" d="M90.3058 95.8315C90.8517 96.3869 90.844 97.2796 90.2887 97.8255L83.5947 104.406C83.0461 104.945 82.1665 104.945 81.6179 104.406L78.9118 101.746C78.3565 101.2 78.3488 100.307 78.8947 99.7515C79.4406 99.1962 80.3333 99.1885 80.8887 99.7344L82.6063 101.423L88.3118 95.8144C88.8672 95.2685 89.7599 95.2762 90.3058 95.8315Z" fill="white"/>
<path d="M112.172 32.7915L112.172 32.7914C113.007 30.6725 113.339 28.5593 113.688 26.3443C113.747 25.9669 113.807 25.5865 113.87 25.2026L112.172 32.7915ZM112.172 32.7915C112.03 33.1532 111.62 33.3321 111.259 33.1892L111.258 33.1887C110.896 33.0482 110.717 32.6393 110.859 32.2781L110.859 32.2781M112.172 32.7915L110.859 32.2781M110.859 32.2781C111.655 30.2551 111.969 28.2293 112.289 26.1723C112.35 25.7749 112.412 25.3763 112.477 24.9763C112.541 24.5919 112.904 24.331 113.288 24.3942C113.672 24.4576 113.933 24.8192 113.87 25.2026L110.859 32.2781Z" fill="#011625" stroke="#011625" stroke-width="0.47"/>
<path d="M116.217 37.2888C120.949 34.0129 125.585 29.6013 129.033 24.9798L129.033 24.9797C129.265 24.6686 129.707 24.604 130.021 24.8357C130.332 25.0662 130.398 25.5071 130.165 25.8186C126.632 30.5552 121.876 35.0808 117.022 38.4431L117.022 38.4432C116.703 38.6649 116.263 38.5852 116.04 38.2664C115.819 37.9491 115.897 37.5109 116.217 37.2888ZM116.217 37.2888C116.216 37.2888 116.216 37.2889 116.216 37.2889L116.083 37.0957M116.217 37.2888C116.217 37.2888 116.217 37.2887 116.217 37.2887L116.083 37.0957M116.083 37.0957C120.795 33.8336 125.413 29.4395 128.845 24.8393L117.156 38.6362C116.73 38.9322 116.144 38.8253 115.848 38.401C115.551 37.9766 115.657 37.3917 116.083 37.0957Z" fill="#011625" stroke="#011625" stroke-width="0.47"/>
<path d="M129.11 40.8311C125.628 41.8273 121.764 42.3941 118.226 41.3145C117.73 41.1629 117.204 41.4423 117.053 41.936C116.901 42.4296 117.181 42.9557 117.677 43.1074M129.11 40.8311L129.174 41.0572C129.174 41.0572 129.174 41.0572 129.174 41.0571M129.11 40.8311C129.608 40.6898 130.13 40.9773 130.273 41.4757C130.416 41.971 130.128 42.4904 129.629 42.6347M129.11 40.8311L129.174 41.057C129.174 41.0571 129.174 41.0571 129.174 41.0571M129.174 41.0571C125.677 42.0576 121.761 42.6386 118.158 41.5393L118.157 41.5393C117.785 41.4254 117.39 41.6357 117.277 42.0048L117.277 42.0049C117.164 42.3738 117.373 42.7688 117.746 42.8826M129.174 41.0571C129.549 40.9511 129.94 41.1676 130.047 41.5406L130.047 41.541C130.154 41.9101 129.94 42.3 129.564 42.4089M117.746 42.8826C117.746 42.8826 117.746 42.8826 117.746 42.8826L117.677 43.1074M117.746 42.8826L117.677 43.1074M117.746 42.8826C121.567 44.0491 125.759 43.496 129.564 42.4089M117.677 43.1074C121.562 44.2933 125.806 43.7271 129.629 42.6347M129.629 42.6347L129.564 42.409C129.564 42.4089 129.564 42.4089 129.564 42.4089M129.629 42.6347L129.564 42.4087C129.564 42.4088 129.564 42.4088 129.564 42.4089" fill="#011625" stroke="#011625" stroke-width="0.47"/>
<circle cx="117.97" cy="49.82" r="2.82" fill="#417BA4"/>
<circle cx="94.4701" cy="20.68" r="2.82" fill="#417BA4"/>
<path d="M99.8947 33.1165C99.6515 32.1089 98.2181 32.1089 97.9749 33.1165L97.6598 34.4218C97.5729 34.7819 97.2917 35.0631 96.9316 35.15L95.6263 35.4651C94.6186 35.7083 94.6186 37.1417 95.6263 37.3849L96.9316 37.7C97.2917 37.7869 97.5729 38.0681 97.6598 38.4282L97.9749 39.7335C98.2181 40.7412 99.6515 40.7412 99.8947 39.7335L100.21 38.4282C100.297 38.0681 100.578 37.7869 100.938 37.7L102.243 37.3849C103.251 37.1417 103.251 35.7083 102.243 35.4651L100.938 35.15C100.578 35.0631 100.297 34.7819 100.21 34.4218L99.8947 33.1165Z" fill="#417BA4"/>
<path fill-rule="evenodd" clip-rule="evenodd" d="M87.8735 11.4259C88.1585 12.1506 87.802 12.9692 87.0773 13.2541C85.0087 14.0676 82.3577 16.6877 80.5878 19.9489C79.2405 22.4313 78.5861 24.9383 78.8608 26.9901C79.6886 25.8085 80.6795 24.8394 81.8289 24.2168C83.8892 23.1008 86.2399 23.2192 88.5158 24.7701C90.5043 26.1252 91.3152 28.0534 91.1004 29.9747C90.8951 31.8116 89.7746 33.4722 88.2544 34.5155C86.7114 35.5743 84.6627 36.0626 82.5494 35.4154C81.3514 35.0486 80.2025 34.3392 79.151 33.262C78.1481 37.167 78.1842 42.0583 79.842 46.3843C80.1206 47.1114 79.757 47.9268 79.0299 48.2055C78.3027 48.4841 77.4874 48.1205 77.2087 47.3934C75.0224 41.6882 75.3064 35.1723 77.0892 30.4267C77.0386 30.3352 76.9884 30.2424 76.9386 30.1484C75.063 26.6072 76.186 22.1475 78.1093 18.6038C80.0474 15.0327 83.1208 11.7797 86.0453 10.6297C86.77 10.3448 87.5885 10.7012 87.8735 11.4259ZM80.2556 30.1843C81.3205 31.697 82.4253 32.4282 83.3751 32.719C84.5712 33.0853 85.7374 32.8226 86.6588 32.1903C87.6029 31.5424 88.1961 30.5717 88.2979 29.6614C88.3902 28.8354 88.1015 27.9004 86.9277 27.1005C85.44 26.0866 84.2182 26.1297 83.172 26.6964C82.1288 27.2614 81.096 28.4439 80.2556 30.1843Z" fill="#E3E3E3"/>
<path fill-rule="evenodd" clip-rule="evenodd" d="M133.39 66.5715C118.61 61.0782 107.3 67.9089 103.643 71.7724C102.75 72.7149 101.263 72.7556 100.32 71.8634C99.3779 70.9711 99.3371 69.4837 100.229 68.5412C104.874 63.6349 118.096 55.8727 135.028 62.166C136.244 62.6181 136.864 63.9709 136.412 65.1875C135.959 66.404 134.607 67.0237 133.39 66.5715Z" fill="#CCC6D9"/>
<path fill-rule="evenodd" clip-rule="evenodd" d="M118.355 71.5099C118.685 71.3892 119.032 71.2286 119.299 70.9963C119.617 70.7203 119.746 70.3648 119.833 69.9906C119.945 69.5099 119.989 68.9978 120.124 68.5163C120.174 68.3375 120.271 68.2699 120.312 68.2399C120.416 68.1642 120.522 68.1439 120.621 68.1515C120.739 68.1603 120.901 68.206 121.007 68.4088C121.022 68.4378 121.042 68.4821 121.055 68.5426C121.065 68.587 121.071 68.7259 121.081 68.7832C121.107 68.9242 121.128 69.0652 121.148 69.207C121.215 69.679 121.254 70.0798 121.465 70.5134C121.752 71.102 122.039 71.4622 122.429 71.6217C122.806 71.776 123.256 71.747 123.832 71.626C123.887 71.6124 123.941 71.6007 123.995 71.5911C124.248 71.5456 124.491 71.7168 124.541 71.9766C124.591 72.2363 124.43 72.4893 124.178 72.5463C124.125 72.5582 124.074 72.5695 124.023 72.5798C123.245 72.7777 122.344 73.484 121.821 74.1024C121.659 74.2931 121.423 74.8262 121.182 75.1663C121.005 75.4172 120.805 75.5826 120.637 75.641C120.525 75.6804 120.43 75.6743 120.352 75.6545C120.238 75.6256 120.143 75.5623 120.071 75.4616C120.032 75.4065 119.995 75.3327 119.978 75.2384C119.969 75.193 119.968 75.0777 119.969 75.0255C119.919 74.852 119.859 74.6825 119.816 74.5074C119.711 74.0896 119.506 73.8251 119.263 73.4756C119.035 73.1486 118.791 72.9431 118.432 72.7791C118.386 72.7674 118.009 72.6728 117.876 72.6184C117.682 72.5387 117.59 72.4053 117.556 72.3334C117.499 72.2115 117.493 72.105 117.505 72.0162C117.522 71.8851 117.579 71.7729 117.68 71.6823C117.743 71.626 117.837 71.5713 117.963 71.5446C118.061 71.5237 118.318 71.5117 118.355 71.5099ZM120.562 70.829C120.579 70.8689 120.598 70.909 120.618 70.9495C121.038 71.8116 121.507 72.2929 122.078 72.5265L122.098 72.5341C121.716 72.8255 121.37 73.1511 121.106 73.4634C120.997 73.5919 120.853 73.859 120.697 74.1328C120.556 73.6605 120.324 73.3266 120.034 72.9088C119.812 72.59 119.579 72.35 119.293 72.1544C119.515 72.0374 119.726 71.9003 119.911 71.7401C120.218 71.4735 120.421 71.1646 120.562 70.829Z" fill="#417BA4"/>
<path d="M36.5586 72.7988L36.5587 72.7988C36.8761 72.5129 36.9034 72.0218 36.6177 71.7021C36.3335 71.3815 35.8424 71.3538 35.5241 71.6404C33.4023 73.5499 32.1929 75.9187 31.8435 78.7481C31.79 79.174 32.0933 79.5625 32.516 79.6163L32.5163 79.6163C32.9423 79.67 33.3301 79.367 33.3808 78.9407L33.1475 78.9129L33.3807 78.9417C33.6832 76.4904 34.7234 74.4497 36.5586 72.7988Z" fill="#011625" stroke="#011625" stroke-width="0.47"/>
<path d="M8.2699 83.8178L8.26974 83.8177C7.69851 83.6329 7.42634 83.1483 7.38602 82.5885C7.3475 82.0758 7.52349 81.467 7.62712 81.1858C7.83938 80.6086 8.10428 80.054 8.41181 79.5265C6.00109 76.2961 1.69049 75.5178 -1.64769 77.7524L-1.64796 77.7526C-2.00565 77.9913 -2.48532 77.8923 -2.72344 77.5368L-2.72429 77.5355L-2.72429 77.5355C-2.95934 77.1796 -2.86619 76.6971 -2.50878 76.4585M8.2699 83.8178L31.691 98.5786L31.4914 98.7027C31.4916 98.703 31.4918 98.7033 31.492 98.7037C31.6877 99.0178 31.9659 99.069 32.1369 99.074L32.1394 99.074C32.3799 99.0784 32.5672 99.002 32.7107 98.8951L32.7118 98.8943C32.9073 98.7469 33.0444 98.5217 33.0746 98.2247L33.0748 98.2229C33.0901 98.0606 33.0657 97.861 33.0312 97.674L33.0307 97.6716C33.0234 97.6343 33.0147 97.5976 33.0068 97.5653C33.005 97.5579 33.0032 97.5509 33.0016 97.544C32.9955 97.5192 32.9901 97.4973 32.9852 97.4756C32.9792 97.4485 32.9753 97.4274 32.9733 97.4106C32.9714 97.3949 32.9718 97.3879 32.9719 97.3872C32.9719 97.3872 32.9719 97.3871 32.9719 97.3871C33.0342 96.8618 33.1238 96.3428 33.2148 95.8151C33.2281 95.7381 33.2414 95.6608 33.2547 95.5833L33.2548 95.5828C33.5958 93.566 34.1469 91.6358 34.794 89.6857L34.5798 89.6146L34.794 89.6857C34.9678 89.1619 35.1404 88.6364 35.3133 88.1101C37.1965 82.3762 39.1097 76.5511 42.917 71.8662L42.9171 71.8661C43.1858 71.5352 43.1391 71.0455 42.8071 70.7733C42.4763 70.4998 41.9883 70.5503 41.7168 70.8817L41.7162 70.8824C37.7415 75.7721 35.7433 81.8453 33.8097 87.7219C33.6478 88.2138 33.4864 88.7043 33.3244 89.1926L33.3244 89.1926C32.9055 90.4553 32.5239 91.7158 32.21 92.999C31.8033 90.3059 31.1854 86.973 30.253 84.0317C29.7707 82.5097 29.1963 81.0881 28.5239 79.8971C27.8527 78.7084 27.0757 77.7347 26.1815 77.1263L26.1814 77.1262C20.6295 73.3508 14.1229 73.3397 10.2806 77.1323L10.2806 77.1324C9.94416 77.4647 9.62591 77.8172 9.33054 78.188C6.37429 74.6348 1.38173 73.8542 -2.50878 76.4585M8.2699 83.8178C8.93821 84.0336 9.4602 83.9277 9.8453 83.6505L8.2699 83.8178ZM-2.50878 76.4585C-2.50874 76.4585 -2.5087 76.4585 -2.50865 76.4584L-2.3782 76.6539M-2.50878 76.4585C-2.50883 76.4585 -2.50888 76.4586 -2.50893 76.4586L-2.3782 76.6539M-2.3782 76.6539C-2.62685 76.8198 -2.69286 77.1566 -2.52819 77.406C-2.36139 77.655 -2.02706 77.723 -1.77841 77.5571C1.70948 75.2223 6.22854 76.0784 8.69304 79.5129L-2.3782 76.6539ZM10.5451 82.4546L10.5451 82.4547C10.4434 82.958 10.2126 83.3866 9.8454 83.6504L10.5451 82.4546ZM10.5451 82.4546C10.6418 81.9742 10.62 81.405 10.5421 80.8751M10.5451 82.4546L10.5421 80.8751M8.94637 82.3824C8.9435 82.3826 8.93916 82.3827 8.93299 82.3825C8.93202 82.3824 8.93102 82.3824 8.93001 82.3823L8.94637 82.3824ZM8.94637 82.3824C8.95314 82.3759 8.96464 82.3613 8.97821 82.3277C8.9962 82.2833 9.01034 82.2252 9.02674 82.1442L9.02679 82.1439C9.05074 82.0263 9.06389 81.8965 9.0679 81.7597M8.94637 82.3824L9.0679 81.7597M9.0679 81.7597C9.01461 81.9113 8.94237 82.1564 8.93011 82.3781L9.0679 81.7597ZM10.5421 80.8751C10.472 80.3987 10.3542 79.9385 10.2237 79.5812M10.5421 80.8751L10.2237 79.5812M10.2237 79.5812C10.5649 79.1029 10.9481 78.6551 11.367 78.2418C14.6727 74.9801 20.3578 75.0426 25.3143 78.4131L10.2237 79.5812ZM29.3213 85.5147L29.3222 85.5145L29.3213 85.5147Z" fill="#011625" stroke="#011625" stroke-width="0.47"/>
</g>
<defs>
<linearGradient id="paint0_linear_1216_4914" x1="72.6594" y1="0.347401" x2="73.7907" y2="194.289" gradientUnits="userSpaceOnUse">
<stop stop-color="#F2F2F2"/>
<stop offset="1" stop-color="#EFEFEF"/>
</linearGradient>
<clipPath id="clip0_1216_4914">
<rect width="141" height="141" fill="white"/>
</clipPath>
</defs>
</svg>