<svg class="icon" viewBox="0 0 12 14" fill="none" xmlns="http://www.w3.org/2000/svg">
<path d="M11.377 9.57307C11.124 8.80505 10.9947 8.00169 10.994 7.19307V5.19508C11.0124 3.92906 10.5606 2.70121 9.726 1.74907C8.89425 0.795435 7.73985 0.182267 6.484 0.0270747C5.79 -0.0449253 5.084 0.0270747 4.414 0.254075C3.744 0.469075 3.134 0.828075 2.62 1.30707C2.10344 1.77372 1.69171 2.34461 1.412 2.98207C1.1309 3.61929 0.984177 4.30762 0.981 5.00408V7.20408C0.979534 8.00936 0.850259 8.80932 0.598 9.57407L0 11.3431L0.479 12.0011H3.984C3.984 12.5271 4.199 13.0411 4.57 13.4131C4.94 13.7831 5.455 13.9991 5.982 13.9991C6.508 13.9991 7.022 13.7841 7.393 13.4131C7.764 13.0421 7.98 12.5271 7.98 12.0011H11.485L11.963 11.3431L11.377 9.57307V9.57307ZM6.687 12.7201C6.59499 12.8139 6.48534 12.8886 6.36435 12.94C6.24336 12.9913 6.11342 13.0182 5.982 13.0191C5.85034 13.0182 5.72017 12.9912 5.59899 12.9397C5.47782 12.8882 5.36804 12.8132 5.276 12.7191C5.18197 12.6272 5.10706 12.5175 5.05557 12.3965C5.00409 12.2755 4.97704 12.1456 4.976 12.0141H6.975C6.97917 12.1453 6.95578 12.2759 6.90634 12.3975C6.85691 12.5191 6.78253 12.629 6.688 12.7201H6.687ZM1.172 11.0101L1.543 9.89607C1.83231 9.02821 1.98185 8.11988 1.986 7.20507V5.00408C1.986 4.44108 2.106 3.89107 2.333 3.38807C2.56 2.87407 2.883 2.41907 3.302 2.04807C3.721 1.66607 4.212 1.37807 4.738 1.21107C5.276 1.03107 5.838 0.971075 6.388 1.03107C7.39601 1.16362 8.32021 1.66184 8.985 2.43107C9.64998 3.20127 10.0075 4.1897 9.989 5.20707V7.21707C9.989 8.12607 10.133 9.03507 10.432 9.90807L10.803 11.0211H1.173V11.0091L1.172 11.0101Z" fill="currentColor"/>
</svg>
