<svg class="icon" xmlns="http://www.w3.org/2000/svg" width="24" height="22" viewBox="0 0 24 22" fill="none">
<path fill="currentColor" d="M23.76 0H0.24C0.108 0 0 0.108 0 0.24V2.16C0 2.292 0.108 2.4 0.24 2.4H23.76C23.892 2.4 24 2.292 24 2.16V0.24C24 0.108 23.892 0 23.76 0ZM23.76 18.72H0.24C0.108 18.72 0 18.828 0 18.96V20.88C0 21.012 0.108 21.12 0.24 21.12H23.76C23.892 21.12 24 21.012 24 20.88V18.96C24 18.828 23.892 18.72 23.76 18.72ZM23.76 9.36H0.24C0.108 9.36 0 9.468 0 9.6V11.52C0 11.652 0.108 11.76 0.24 11.76H23.76C23.892 11.76 24 11.652 24 11.52V9.6C24 9.468 23.892 9.36 23.76 9.36Z"/>
</svg>